<?xml version="1.0" encoding="UTF-8" standalone="no"?>
<svg width="128" xmlns="http://www.w3.org/2000/svg" height="128">
 <g id="layer1" stroke-linejoin="round" stroke="#000" fill-rule="evenodd">
  <path id="path3297" stroke-width="6" fill="#fff" d="m27.233 80.19l23.288 22.55c29.936-25.092 68.019-46.946 70.099-95.695-48.657 3.6497-70.239 41.753-93.387 73.146z"/>
  <g stroke-width="3.61">
   <path id="path3301" d="m105.79 32.143a5.1289 5.1883 0 1 1 -10.258 -9.9324 5.1289 5.1883 0 1 1 10.258 9.9324z"/>
   <path id="path3303" d="m91.621 46.778a5.1289 5.1883 0 1 1 -10.258 -9.9324 5.1289 5.1883 0 1 1 10.258 9.9324z"/>
   <path id="path3305" d="m77.256 61.613a5.1289 5.1883 0 1 1 -10.258 -9.9324 5.1289 5.1883 0 1 1 10.258 9.9324z"/>
  </g>
  <g stroke-width="6" fill="#fff">
   <path id="path3307" d="m27.233 80.19l-19.773 6.858c4.2765-12.679 11.044-29.07 20.176-34.67 6.0002-3.6792 20.325-0.93814 20.325-0.93814l-20.728 28.75z"/>
   <path id="path3309" d="m51.231 102.01l-6.2173 19.984c12.535-4.6828 28.699-11.975 34.002-21.283 3.4839-6.1157 0.28281-20.344 0.28281-20.344l-28.067 21.643z"/>
  </g>
 </g>
</svg>
